<?xml version="1.0" encoding="UTF-8"?>
<svg id="Layer_1" data-name="Layer 1" xmlns="http://www.w3.org/2000/svg" viewBox="0 0 175.8 180.49">
  <defs>
    <style>
      .cls-1 {
        fill: #231f20;
        stroke: #231f20;
        stroke-linejoin: round;
        stroke-width: 4px;
      }
    </style>
  </defs>
  <polygon class="cls-1" points="158.08 51.3 158.01 51.3 158.05 51.36 148.9 67.2 148.83 67.2 148.87 67.26 139.72 83.1 139.66 83.1 139.69 83.15 130.54 99 130.48 99 130.51 99.05 121.36 114.9 121.3 114.9 121.33 114.95 112.18 130.8 112.12 130.8 112.15 130.85 103 146.69 102.94 146.69 102.97 146.75 93.83 162.59 93.76 162.59 93.79 162.65 84.65 178.49 84.59 178.49 75.44 162.64 75.47 162.59 75.41 162.59 66.26 146.74 66.29 146.69 66.23 146.69 57.08 130.84 57.1 130.8 66.25 114.95 75.41 130.8 75.43 130.85 84.58 146.69 84.61 146.75 84.64 146.69 93.79 130.85 93.82 130.8 102.97 114.95 103 114.9 112.15 99.05 112.18 99 121.33 83.15 121.36 83.1 130.51 67.25 130.54 67.2 139.69 51.36 139.72 51.3 84.58 51.3 84.61 51.35 75.46 67.2 75.4 67.2 75.43 67.25 66.28 83.1 66.23 83.1 66.25 83.15 57.1 99 57.05 99 57.07 99.05 47.92 114.9 47.87 114.9 38.72 99.05 38.75 99 38.69 99 29.54 83.15 29.57 83.1 29.51 83.1 20.36 67.25 20.39 67.2 20.34 67.2 11.18 51.35 11.21 51.3 11.16 51.3 2 35.45 2.03 35.41 20.33 35.41 20.36 35.46 29.51 51.3 29.54 51.36 38.69 67.2 38.72 67.26 47.87 83.1 47.9 83.16 47.93 83.1 57.08 67.26 57.11 67.2 66.26 51.36 66.29 51.3 75.44 35.46 75.47 35.41 93.77 35.41 93.79 35.45 93.82 35.41 112.13 35.41 112.15 35.45 112.18 35.41 130.48 35.41 130.51 35.46 130.53 35.41 148.84 35.41 148.87 35.46 148.89 35.41 167.19 35.41 167.22 35.46 158.08 51.3"/>
  <circle class="cls-1" cx="163.8" cy="12" r="10"/>
</svg>